<?xml version="1.0" encoding="UTF-8"?>
<svg id="Layer_1" data-name="Layer 1" xmlns="http://www.w3.org/2000/svg" viewBox="0 0 500 500">
  <defs>
    <style>
      .cls-1 {
        fill: #080909;
      }

      .cls-2 {
        fill: #bef42e;
      }
    </style>
  </defs>
  <rect class="cls-2" x="-9" y="-10.69" width="520.57" height="520.57"/>
  <g>
    <path class="cls-1" d="M392,211.6h-53.67c-6.39,0-11.57,5.18-11.57,11.57v65.23h65.23c6.39,0,11.57-5.18,11.57-11.57v-53.67c0-6.39-5.18-11.57-11.57-11.57Z"/>
    <path class="cls-1" d="M249.97,353.64c0,6.39,5.18,11.57,11.57,11.57h53.67c6.39,0,11.57-5.18,11.57-11.57v-65.23h-76.8v65.23Z"/>
    <path class="cls-1" d="M249.97,146.37v142.03H107.98c-6.39,0-11.55-5.18-11.55-11.58v-53.66c0-6.36,5.15-11.55,11.55-11.55h65.21v-65.24c0-6.39,5.15-11.58,11.55-11.58h53.66c6.39,0,11.58,5.18,11.58,11.58Z"/>
  </g>
</svg>